/* XPM */
static char *_ae69e3a4356433e9d841fcc472403bdkgAM5FieKPW33kZe[] = {
/* columns rows colors chars-per-pixel */
"16 16 29 1 ",
"  c None",
". c #00DD77",
"X c #00D77E",
"o c #00DB79",
"O c #00DB7A",
"+ c #00DD78",
"@ c #00D97D",
"# c #00BF99",
"$ c #00BD9B",
"% c #00BB9D",
"& c #00BB9E",
"* c #00BC9D",
"= c #00CF86",
"- c #00CD89",
"; c #00CD8A",
": c #00CB8C",
"> c #00C98E",
", c #00C98F",
"< c #00D283",
"1 c #00D481",
"2 c #00D482",
"3 c #00D284",
"4 c #00D086",
"5 c #00D087",
"6 c #00C691",
"7 c #00C493",
"8 c #00C296",
"9 c #00C494",
"0 c #00C098",
/* pixels */
"                ",
"      ****      ",
"    0      *    ",
"   6        &   ",
"  :    #*    &  ",
" =    9  #    & ",
" 3   :    *   & ",
" 2  ;  69  *  * ",
" X   ;:  98   * ",
" @   3 :: 9   * ",
" O  2      8  * ",
" +   2    :   0 ",
"  +    <5    9  ",
"   +   23   :   ",
"    .O    3;    ",
"      O  2      "
};
