/* XPM */
static char *_407a066d24a4f15d068e1baec44f74crQh8TxsowaKlHj18[] = {
/* columns rows colors chars-per-pixel */
"32 32 83 1 ",
"  c None",
". c #00DD77",
"X c #00DE76",
"o c #00DF76",
"O c #00D77E",
"+ c #00D67F",
"@ c #00D77F",
"# c #00DA79",
"$ c #00DB79",
"% c #00DB7A",
"& c #00DA7B",
"* c #00DB7B",
"= c #00DC78",
"- c #00DD78",
"; c #00DC79",
": c #00D97C",
"> c #00D87D",
", c #00D87E",
"< c #00BE99",
"1 c #00BF99",
"2 c #00BD9A",
"3 c #00BC9B",
"4 c #00BD9B",
"5 c #00BE9A",
"6 c #00BF9A",
"7 c #00BE9B",
"8 c #00BB9C",
"9 c #00BA9E",
"0 c #00BB9E",
"q c #00BC9C",
"w c #00BD9C",
"e c #00BC9D",
"r c #00CF87",
"t c #00C78F",
"y c #00CB8A",
"u c #00CB8B",
"i c #00CD89",
"p c #00CE88",
"a c #00CF88",
"s c #00CE89",
"d c #00CC8A",
"f c #00CD8A",
"g c #00CC8B",
"h c #00C98D",
"j c #00CB8C",
"k c #00CA8D",
"l c #00C88E",
"z c #00C98E",
"x c #00C88F",
"c c #00C98F",
"v c #00CA8E",
"b c #00D382",
"n c #00D283",
"m c #00D383",
"M c #00D580",
"N c #00D481",
"B c #00D581",
"V c #00D680",
"C c #00D482",
"Z c #00D483",
"A c #00D185",
"S c #00D284",
"D c #00D086",
"F c #00D186",
"G c #00D087",
"H c #00C790",
"J c #00C691",
"K c #00C791",
"L c #00C592",
"P c #00C493",
"I c #00C593",
"U c #00C692",
"Y c #00C294",
"T c #00C394",
"R c #00C395",
"E c #00C096",
"W c #00C197",
"Q c #00C296",
"! c #00C297",
"~ c #00C494",
"^ c #00C890",
"/ c #00C098",
"( c #00C099",
/* pixels */
"                                ",
"              0ww00             ",
"          www0w0w000000         ",
"        T///         0000       ",
"       T//             000      ",
"      PP                 00     ",
"     ^^         w         00    ",
"    cc         (w0         00   ",
"   fg         // 77         00  ",
"   f         //   70         0  ",
"  Gf        UU     7w        00 ",
"  F        ^U^     77w        0 ",
" nF       cct   T   /ww       00",
" nF       cc   PUT   7w       00",
" VF      ff   PP UT   /w      w0",
" V      ff   cc   U/   /w      0",
" V       fffgg     U////       w",
" :         fg      UUT         w",
" :        fr  cc ^UU           w",
" ::      FFF   gc^   UUU      w0",
" =:     VVF           PPU     ww",
" ==     Vn             PT     70",
"  =*   @VVV           ^PUT   77 ",
"  =*     @VFn       ccct     T/ ",
"   ==      VnVF   fffc      T/  ",
"   .=         VFFFr         UT  ",
"    o=        VnFFF        ^P   ",
"     o=       VF nF       ^^    ",
"      o.=     V   F     fcc     ",
"       o.=*   @   V   Ffff      ",
"         ..**::   nVFFFr        ",
"           ***:   VFnn          "
};
