/* XPM */
static char *c231251c30f54930b5f5d27606f28a0fC5D4HD7d9EQ4Xg6l[] = {
/* columns rows colors chars-per-pixel */
"64 64 119 2 ",
"   c None",
".  c #00DF75",
"X  c #00DD76",
"o  c #00DC77",
"O  c #00DD77",
"+  c #00DE77",
"@  c #00D77C",
"#  c #00D77D",
"$  c #00D67E",
"%  c #00D77E",
"&  c #00D67F",
"*  c #00D77F",
"=  c #00DB79",
"-  c #00D97B",
";  c #00DA7A",
":  c #00DB7A",
">  c #00DA7B",
",  c #00DB7B",
"<  c #00DC78",
"1  c #00DD78",
"2  c #00DC79",
"3  c #00DC7A",
"4  c #00D87C",
"5  c #00D97C",
"6  c #00D87D",
"7  c #00D97D",
"8  c #00DA7C",
"9  c #00D87E",
"0  c #00BF97",
"q  c #00BE99",
"w  c #00BF99",
"e  c #00BC9A",
"r  c #00BD9A",
"t  c #00BC9B",
"y  c #00BD9B",
"u  c #00BE9A",
"i  c #00BF9A",
"p  c #00BE9B",
"a  c #00BA9C",
"s  c #00BB9C",
"d  c #00BA9D",
"f  c #00BB9D",
"g  c #00BA9E",
"h  c #00BB9E",
"j  c #00BC9C",
"k  c #00BD9C",
"l  c #00BC9D",
"z  c #00CF85",
"x  c #00CE86",
"c  c #00CF86",
"v  c #00CE87",
"b  c #00CF87",
"n  c #00C68F",
"m  c #00C78F",
"M  c #00CB8B",
"N  c #00CC89",
"B  c #00CD89",
"V  c #00CE88",
"C  c #00CF88",
"Z  c #00CE89",
"A  c #00CC8A",
"S  c #00CD8A",
"D  c #00CC8B",
"F  c #00C88C",
"G  c #00C98C",
"H  c #00C98D",
"J  c #00CA8C",
"K  c #00CB8C",
"L  c #00CA8D",
"P  c #00CB8D",
"I  c #00C88E",
"U  c #00C98E",
"Y  c #00C88F",
"T  c #00C98F",
"R  c #00CA8E",
"E  c #00D381",
"W  c #00D282",
"Q  c #00D382",
"!  c #00D283",
"~  c #00D383",
"^  c #00D480",
"/  c #00D580",
"(  c #00D481",
")  c #00D581",
"_  c #00D680",
"`  c #00D482",
"'  c #00D084",
"]  c #00D184",
"[  c #00D085",
"{  c #00D185",
"}  c #00D284",
"|  c #00D285",
" . c #00D086",
".. c #00D186",
"X. c #00D087",
"o. c #00C393",
"O. c #00C591",
"+. c #00C690",
"@. c #00C790",
"#. c #00C691",
"$. c #00C791",
"%. c #00C492",
"&. c #00C592",
"*. c #00C493",
"=. c #00C593",
"-. c #00C692",
";. c #00C195",
":. c #00C294",
">. c #00C394",
",. c #00C295",
"<. c #00C395",
"1. c #00C097",
"2. c #00C197",
"3. c #00C296",
"4. c #00C494",
"5. c #00C890",
"6. c #00C098",
"7. c #00C198",
"8. c #00C099",
/* pixels */
"                                                                                                                                ",
"                                                              j j h h                                                           ",
"                                                  j j j h j h j h j h h h h h h h                                               ",
"                                            i j j h j j j h j h j h 8.h h h h h h h h h                                         ",
"                                        i i i j j j j j h j j j j j j h h h h h h h h h h h                                     ",
"                                    7.7.i i i i j j                             h h h h h h h h                                 ",
"                                <.i 7.7.0 i i                                         h h h h h h h                             ",
"                              <.<.<.<.<.0                                                 h h h h h h                           ",
"                          o.#.<.<.<.<.                                                        j h h h h j                       ",
"                        #.#.#.<.=.                                                                h h h h j                     ",
"                      m #.#.#.<.                                                                    h h h h e                   ",
"                    Y 5.#.#.#.                                  j j                                   h h h h h                 ",
"                  M Y Y 5.m                                   e j j h                                   h h h h h               ",
"                  D Y K 5.                                  i i j j j j                                   h h h h               ",
"                Y D Y Y                                     i i 8.j 8.j                                     h h h h             ",
"              D Y D Y                                     0 7.i 8.j j j j                                     h h h h           ",
"              D D D                                     7.7.7.i     7.j j j                                     h h h           ",
"            C D D D                                   7.<.<.7.        j j j j                                   h h h h         ",
"            C D D                                   <.<.7.<.            7.j j j                                   h h h         ",
"          X.X.C D                                 =.=.=.<.                7.i j j                                 h h h h       ",
"          X.X.X.                                =.=.=.=.                    j j j j                                 h h h       ",
"        X.X.X.z                               5.#.#.=.                        i j j j                               h h h h     ",
"        ~ X.X.                              5.5.#.#.#.                        7.7.j 7.j                               h h h     ",
"        ~ X.X.                            Y Y 5.#.#.            <.<.            j 7.j j i                             h h h     ",
"      ~ ~ X.~                             Y Y Y 5.            =.<.<.<.            i i j j                             h h h h   ",
"      ~ ` X.                            K Y K Y             =.=.=.<.<.<.            i i i j                             h h h   ",
"      ` ~ ~                           D K K Y             #.=.=.=.=.<.<.<.            i i i j                           h h h   ",
"      ` ` ~                         D D D D             #.5.5.5.    <.<.<.<.            i i i j                         h h h   ",
"      ` ` `                       D D D D             Y 5.5.5.        <.<.<.<.            i i i i                       e j h   ",
"      ` ` %                     X.X.C D D           Y K Y 5.          #.<.<.<.<.          e i i j i                     h h j   ",
"    % % % %                   X.X.D z C C D D     D K Y Y Y             <.<.=.<.<.    <.<.i i i i i j                   h j j h ",
"    % % % `                       z C D C D D D D K K Y Y                 #.=.<.<.<.<.0 <.i i i i                       h j j h ",
"    8 % ` %                             X.D D D D D K K                     =.=.=.<.<.<.7.7.                            h j j h ",
"    % % 8 %                                 X.D D D D                     #.#.=.<.=.<.<.                                j j j h ",
"    8 % % %                                 D X.D D       K Y         Y #.#.=.#.#.<.                                    j j j j ",
"      > % 8                               X.C X.C       D K D D Y Y Y Y #.#.#.#.                                        h h j   ",
"      8 8 %                             X.X.X.X.        D D M Y K K Y Y 5.#.          <.<.<.                            h h j   ",
"      > 8 8                           X.X.X.X.              D M K Y K Y               =.#.=.<.                          j j h   ",
"      > > 8                         ` X.~ X.                    D K                     =.<.<.<.                        j h j   ",
"      3 3 > >                     ` ` ` ~                                                 #.=.<.<.                    j j j j   ",
"        > > >                   ` ` ` ` `                                                 =.=.=.<.<.                  i i e     ",
"        3 3 3                 ` % ` ` `                                                     #.=.#.<.<.                i i h     ",
"        o + > >               % % ` ` ` `                                                 #.#.#.=.<.=.              7.i i i     ",
"          3 3 3                 % ` % ` ` ` ~                                         Y #.5.#.#.#.=.                7.i i       ",
"          3 3 +                     % ` ` ` ` ~ ~                                 K Y K 5.5.5.#.                    <.i i       ",
"          + + > 3                       % ` ` ` ~ ~ X.                        D K K K Y Y 5.                      <.i 7.i       ",
"            + + 3 +                         ` ` ` ~ ` ~ X.                D D D K K K Y                         <.<.<.7.        ",
"              + + 3                             ` ` ~ ` X.~ X.        z D D D D K K                             <.<.<.          ",
"              + + 3 3                               ` ` ~ X.` ~ z ~ X.X.C C D D                               <.=.<.<.          ",
"                + + + +                                 ~ ~ ~ X.X.X.X.X.X.X.                                #.=.#.<.            ",
"                  + + 3 3                               ` ` ` ~ ~ ~ X.X.X.X.                              5.=.#.=.              ",
"                  . + + + 3                             ` ` ~   ~ ~   X.X.z                             5.#.5.5.#.              ",
"                    . + + + 3                           ` ` `         X.X.X.                          Y Y 5.5.5.                ",
"                      . + + 3 +                         8 ` `         ~ ~ X.                        K Y Y Y 5.                  ",
"                        . + + + 3                       ` % `         X.~ X.                      K Y D Y Y                     ",
"                          + + + + + 3                   8 ` `         ` ` X.                  D K K D Y Y                       ",
"                            . + + + > >               % 8 ` `         ` ~ X.~               z D D D D Y                         ",
"                                + + + o 3 >           % % 8             ~ ~ ~           X.D D z D D                             ",
"                                  + + + + > > > >     8 8 %             ` ~ ~     ~ ~ X.X.X.X.D z                               ",
"                                      + + + + > > 3 8 8 8 %             ` ` ~ ~ X.~ ~ X.X.X.z                                   ",
"                                            + 3 3 3 > > 8 8             ` ` ` ` ~ X.~ X.                                        ",
"                                                3 3 > 3 > 8             % ` ` ` ~ `                                             ",
"                                                          8             %                                                       ",
"                                                                                                                                "
};
