<?xml version="1.0" standalone="no"?>
<!DOCTYPE svg PUBLIC "-//W3C//DTD SVG 20010904//EN"
 "http://www.w3.org/TR/2001/REC-SVG-20010904/DTD/svg10.dtd">
<svg version="1.0" xmlns="http://www.w3.org/2000/svg"
 width="49.000000pt" height="60.000000pt" viewBox="0 0 49.000000 60.000000"
 preserveAspectRatio="xMidYMid meet">
<metadata>
Created by potrace 1.16, written by Peter Selinger 2001-2019
</metadata>
<g transform="translate(0.000000,60.000000) scale(0.100000,-0.100000)"
fill="#000000" stroke="none">
<path d="M10 463 l0 -78 19 30 c31 50 77 87 133 106 l53 18 -102 1 -103 0 0
-77z"/>
<path d="M295 531 c72 -18 142 -77 169 -143 20 -48 20 -138 0 -186 -29 -70
-119 -142 -179 -142 -22 0 -25 4 -25 34 0 38 -17 57 -31 35 -5 -8 -9 -29 -9
-46 l0 -33 135 0 135 0 0 245 0 245 -112 -1 c-71 -1 -102 -4 -83 -8z"/>
<path d="M160 494 c-97 -42 -153 -148 -130 -246 14 -55 63 -119 113 -144 37
-20 57 -12 57 24 0 24 -8 32 -56 55 l-57 28 34 35 c28 29 31 36 19 44 -8 5
-21 10 -28 10 -20 0 -14 10 61 91 l67 74 70 -75 c38 -41 69 -77 69 -80 1 -3
-31 -20 -70 -37 -55 -25 -76 -30 -90 -22 -27 14 -24 32 4 25 13 -3 32 0 41 7
16 12 16 14 -4 32 l-22 20 -49 -55 c-27 -30 -49 -58 -49 -61 0 -3 23 -16 50
-29 l50 -23 50 23 c28 13 50 26 50 28 0 3 -7 13 -15 22 -14 15 -14 18 -2 23 8
3 27 -7 42 -23 l28 -29 -57 -28 c-48 -23 -56 -31 -56 -55 0 -40 23 -44 75 -14
117 69 136 240 37 334 -62 58 -160 77 -232 46z"/>
<path d="M186 366 c-37 -44 -43 -55 -30 -60 11 -4 28 6 50 31 l34 38 35 -37
c21 -23 40 -35 50 -32 11 5 4 18 -31 60 -26 30 -50 54 -54 54 -4 0 -28 -24
-54 -54z"/>
<path d="M10 128 l0 -78 103 1 c65 1 91 4 72 8 -63 16 -132 69 -163 126 -9 16
-11 4 -12 -57z"/>
</g>
</svg>
